<svg xmlns="http://www.w3.org/2000/svg" xmlns:xlink="http://www.w3.org/1999/xlink" version="1.1" x="0px" y="0px" viewBox="0 0 100 125" enable-background="new 0 0 100 100" xml:space="preserve"><g><path d="M85.356,14.644c-4.593-4.59-9.939-8.195-15.895-10.714c-3.722-1.574-7.586-2.671-11.548-3.301   C55.314,0.216,52.675,0,50.001,0c-4.406,0-8.724,0.574-12.908,1.691c-2.226,0.594-4.414,1.333-6.556,2.238   c-4.138,1.75-7.974,4.037-11.476,6.803c-1.537,1.214-3.017,2.512-4.417,3.911c-4.591,4.593-8.196,9.938-10.715,15.893   C1.323,36.701,0,43.251,0,50.001c0,10.008,2.934,19.627,8.493,27.884L0,100l22.116-8.493C30.372,97.066,39.992,100,50.001,100   c1.083,0,2.159-0.047,3.23-0.115c5.608-0.355,11.056-1.626,16.23-3.814c5.955-2.519,11.302-6.124,15.895-10.716   c4.59-4.591,8.195-9.937,10.714-15.891c2.606-6.165,3.93-12.715,3.93-19.463c0-6.75-1.323-13.3-3.93-19.465   C93.552,24.582,89.946,19.236,85.356,14.644z M81.561,84.18C75.91,89.4,68.97,93.241,61.274,95.163l-4.123-7.948   c-4.956-10.394-2.247-12.042-5.306-17.829C48.54,63.13,32.79,36.428,32.79,36.428c-0.856-1.619-2.5-2.441-4.188-1.551   c-1.688,0.894-1.832,2.798-0.976,4.417l7.521,15.396c-0.855-1.619-2.919-2.207-4.607-1.313c-1.69,0.894-2.365,2.929-1.51,4.548   l1.648,3.12c-0.855-1.619-2.918-2.208-4.607-1.314s-2.364,2.929-1.509,4.548l1.8,3.404c-0.856-1.617-2.92-2.208-4.609-1.314   s-2.364,2.929-1.509,4.548c0,0,4.398,8.323,6.397,12.104c2,3.784,9.326,7.413,10.726,10.061c0.066,0.126,0.665,0.935,1.566,2.131   c-5.95-1.457-11.45-4.067-16.262-7.568L5.928,94.072l6.425-16.731C6.756,69.66,3.448,60.21,3.448,49.999   c0-24.68,19.312-44.927,43.615-46.448c0.223,2.364,0.453,4.325,0.625,4.798c1.473,4.039,1.789,5.113,1.629,7.001   c-0.457,5.381-10.748,15.298-7.958,18.153c1.453,1.486,4.418,1.383,5.426,1.344c2.613-0.101,3.292,1.755,2.17,3.267   c-1.737,2.343-3.03,2.491-3.293,4.11c-0.194,1.193,0.905,2.055,2.261,2.16c3.441,0.266,1.082,0.944,0.377,2.11   c-1.055,1.748,0.146,3.494,0.977,3.528c0.829,0.034,4.06-1.119,5.401,0.597c1.493,1.909-0.11,4.688,1.754,7.838   c2.604,4.4,5.19,5.029,12.225,3.659c7.032-1.372,7.427-2.611,9.451,0.387C81.549,67.598,82.123,76.881,81.561,84.18z"/></g><text x="0" y="115" fill="#000000" font-size="5px" font-weight="bold" font-family="'Helvetica Neue', Helvetica, Arial-Unicode, Arial, Sans-serif">Created by Bohdan Burmich</text><text x="0" y="120" fill="#000000" font-size="5px" font-weight="bold" font-family="'Helvetica Neue', Helvetica, Arial-Unicode, Arial, Sans-serif">from the Noun Project</text></svg>